# xmcd CD database file
#
# Track frame offsets:
#	150
#	64065
#	113719
#	151544
#	208515
#	243618
#	269490
#	333945
#
# Disc length: 4918 seconds
#
# Revision: 0
# Processed by: cddbd v1.5.2PL0 Copyright (c) Steve Scherf et al.
# Submitted via: CDex 1.51
#
DISCID=69133408
DTITLE=Branford Marsalis Quartet - Braggtown
DYEAR=2006
DGENRE=Jazz
TTITLE0=Jack Baker
TTITLE1=Hope
TTITLE2=Fate
TTITLE3=Blakzilla
TTITLE4=O Solitude
TTITLE5=Sir Roderick, The Aloof
TTITLE6=Black Elk Speaks
TTITLE7=Laughin' and Talkin' With Higg
EXTD=YEAR: 2006
EXTT0=
EXTT1=
EXTT2=
EXTT3=
EXTT4=
EXTT5=
EXTT6=
EXTT7=
PLAYORDER=
